Coordinates
version=1
nRows=38
nColumns=34
inDegrees=no

Units are S.I. units (second, meters, Newtons, ...)
If the header above contains a line with 'inDegrees', this indicates whether rotational values are in degrees (yes) or radians (no).

endheader
time	pelvis_tilt	pelvis_list	pelvis_rotation	pelvis_tx	pelvis_ty	pelvis_tz	hip_flexion_r	hip_adduction_r	hip_rotation_r	knee_angle_r	ankle_angle_r	subtalar_angle_r	mtp_angle_r	hip_flexion_l	hip_adduction_l	hip_rotation_l	knee_angle_l	ankle_angle_l	subtalar_angle_l	mtp_angle_l	lumbar_extension	lumbar_bending	lumbar_rotation	arm_flex_r	arm_add_r	arm_rot_r	elbow_flex_r	pro_sup_r	arm_flex_l	arm_add_l	arm_rot_l	elbow_flex_l	pro_sup_l
2	-0.406046	-0.0533973	0.00870472	-0.286943	1.08414	-0.577902	0.774243	-0.149297	-0.165923	0.519421	0.0945662	0.0233216	-0.0173581	0.783007	-0.281535	-0.163819	0.503964	0.1098	0.100742	-0.0193253	-0.313524	0.0268167	0.0666005	0.84977	-0.24601	0.370198	1.64557	1.7125	0.893164	-0.212443	0.544664	1.58712	1.79968
2.01	-0.429317	-0.0553644	0.00626436	-0.293805	1.07805	-0.577385	0.816427	-0.149209	-0.164514	0.540062	0.0973088	0.0190874	-0.017358	0.828061	-0.286942	-0.159344	0.52848	0.113655	0.0981907	-0.019329	-0.316559	0.027381	0.0700756	0.894879	-0.246428	0.36964	1.64099	1.71341	0.936426	-0.207855	0.5428	1.58147	1.7992
2.02	-0.452328	-0.0569583	0.00362565	-0.3006	1.07172	-0.576898	0.858838	-0.149459	-0.162848	0.561519	0.10036	0.0151983	-0.0173579	0.873051	-0.29198	-0.154415	0.553459	0.117593	0.0948136	-0.0193327	-0.31975	0.0276466	0.0736874	0.9404	-0.246766	0.369146	1.63609	1.71358	0.979944	-0.202969	0.540977	1.57571	1.79664
2.03	-0.474981	-0.0581128	0.000867307	-0.307306	1.06516	-0.576458	0.901355	-0.150156	-0.160929	0.5838	0.103726	0.0117197	-0.0173578	0.917806	-0.296526	-0.149047	0.578822	0.121622	0.0906596	-0.0193363	-0.323137	0.0275948	0.077328	0.986231	-0.246976	0.368746	1.63089	1.71282	1.02357	-0.197825	0.539169	1.56993	1.79148
2.04	-0.497181	-0.0588337	-0.00193262	-0.313904	1.05838	-0.576078	0.943828	-0.151332	-0.158789	0.606866	0.107399	0.00865611	-0.0173577	0.962182	-0.300534	-0.143259	0.604499	0.125749	0.0858614	-0.01934	-0.326772	0.0272883	0.0809001	1.03225	-0.246973	0.368435	1.6254	1.71121	1.06713	-0.192494	0.537268	1.56423	1.78345
2.05	-0.518848	-0.0592061	-0.00470216	-0.320376	1.05141	-0.575767	0.986083	-0.152942	-0.15649	0.63063	0.111354	0.00594539	-0.0173576	1.00607	-0.304036	-0.137053	0.630428	0.129981	0.0806221	-0.0193436	-0.330695	0.0268685	0.0843312	1.0783	-0.246655	0.368167	1.61961	1.70903	1.1104	-0.187068	0.535083	1.55874	1.77286
2.06	-0.539932	-0.0593799	-0.00737744	-0.326701	1.04426	-0.57553	1.02795	-0.154878	-0.154115	0.654966	0.115562	0.00346872	-0.0173575	1.04942	-0.307115	-0.130409	0.656545	0.134327	0.0751877	-0.0193472	-0.334901	0.0265259	0.0875845	1.12417	-0.245926	0.367856	1.61353	1.70666	1.15314	-0.181643	0.532362	1.55355	1.76068
2.07	-0.560435	-0.0595413	-0.00990386	-0.332862	1.03693	-0.575364	1.06929	-0.156996	-0.151755	0.679726	0.119989	0.00106613	-0.0173573	1.09223	-0.309883	-0.123289	0.682795	0.138804	0.069815	-0.0193508	-0.339322	0.026456	0.0906706	1.16958	-0.244747	0.367373	1.60721	1.7044	1.19511	-0.176287	0.528852	1.54871	1.74849
2.08	-0.580404	-0.0598789	-0.0122358	-0.338842	1.02944	-0.575259	1.11001	-0.159149	-0.149491	0.704764	0.124602	-0.00144385	-0.0173572	1.13459	-0.312447	-0.115652	0.709127	0.143427	0.0647383	-0.0193543	-0.343816	0.0268229	0.0936437	1.2142	-0.243149	0.36657	1.60076	1.70242	1.23608	-0.171021	0.524375	1.54422	1.73811
2.09	-0.599923	-0.0605455	-0.0143308	-0.34463	1.02178	-0.575202	1.15009	-0.161222	-0.147378	0.729961	0.129381	-0.0042368	-0.0173571	1.17658	-0.314879	-0.107457	0.735499	0.148213	0.0601351	-0.0193579	-0.348205	0.0277417	0.0965772	1.25767	-0.241227	0.365314	1.59431	1.70068	1.27585	-0.165824	0.518884	1.54005	1.73098
2.1	-0.619087	-0.0616394	-0.0161404	-0.350217	1.01396	-0.575179	1.18954	-0.163158	-0.145431	0.755242	0.134323	-0.00745121	-0.017357	1.2183	-0.317189	-0.0986884	0.761877	0.153169	0.0561027	-0.0193614	-0.352317	0.0292592	0.0995338	1.29969	-0.239111	0.363526	1.58803	1.69897	1.31427	-0.160664	0.512472	1.53619	1.7279
2.11	-0.637955	-0.0631833	-0.017614	-0.355598	1.00596	-0.575177	1.22838	-0.164975	-0.143613	0.780582	0.139439	-0.0111615	-0.0173568	1.25977	-0.319314	-0.0893693	0.788227	0.158294	0.0526515	-0.0193649	-0.35602	0.0313473	0.102545	1.34004	-0.23694	0.361201	1.58208	1.69692	1.35128	-0.155508	0.505345	1.53264	1.729
2.12	-0.656545	-0.0651163	-0.018705	-0.360776	0.997802	-0.575191	1.26667	-0.16676	-0.141833	0.805999	0.144756	-0.0153611	-0.0173567	1.30098	-0.321134	-0.0795754	0.814512	0.163572	0.0497168	-0.0193684	-0.359253	0.0339073	0.105605	1.37861	-0.234848	0.358406	1.5766	1.69418	1.38689	-0.150338	0.497781	1.52941	1.73376
2.13	-0.674819	-0.0673101	-0.0193775	-0.365752	0.98949	-0.575218	1.30445	-0.168644	-0.139968	0.831542	0.150305	-0.0199593	-0.0173566	1.34183	-0.322497	-0.0694273	0.840701	0.168982	0.047181	-0.0193719	-0.362037	0.0367875	0.108679	1.4154	-0.232958	0.355274	1.57172	1.69051	1.42114	-0.145147	0.490086	1.52656	1.7412
2.14	-0.692689	-0.0696	-0.01961	-0.370531	0.98104	-0.575262	1.3417	-0.170775	-0.137891	0.857274	0.156118	-0.0247919	-0.0173564	1.38213	-0.323249	-0.0590695	0.866768	0.1745	0.0448999	-0.0193754	-0.364476	0.0398096	0.111711	1.45052	-0.231375	0.351976	1.56755	1.68593	1.45415	-0.139939	0.482557	1.52413	1.74998
2.15	-0.710027	-0.0718178	-0.0194002	-0.375116	0.972473	-0.575329	1.3784	-0.17329	-0.135487	0.883255	0.162228	-0.0296474	-0.0173563	1.42169	-0.323265	-0.0486463	0.892705	0.180107	0.0427284	-0.0193788	-0.366739	0.0427952	0.114639	1.48413	-0.23018	0.348698	1.56417	1.68071	1.48602	-0.134724	0.475447	1.52221	1.75872
2.16	-0.726682	-0.0738197	-0.0187749	-0.379509	0.963811	-0.575423	1.41447	-0.176275	-0.132676	0.909535	0.168659	-0.0343068	-0.0173561	1.46029	-0.322484	-0.0382839	0.918525	0.185795	0.0405465	-0.0193822	-0.369029	0.0455863	0.117417	1.51643	-0.229423	0.345606	1.5616	1.67533	1.51687	-0.129528	0.468941	1.52085	1.76631
2.17	-0.742503	-0.075511	-0.0178024	-0.383709	0.95508	-0.575546	1.4498	-0.179736	-0.129412	0.936141	0.175417	-0.0385867	-0.0173559	1.49774	-0.320932	-0.028077	0.944271	0.19158	0.0382819	-0.0193856	-0.371553	0.0480627	0.120039	1.54761	-0.229117	0.342822	1.55987	1.67038	1.54676	-0.124384	0.463138	1.52011	1.77205
2.18	-0.757356	-0.0768654	-0.0165954	-0.387714	0.946302	-0.575692	1.48427	-0.183585	-0.1257	0.963066	0.182478	-0.0423736	-0.0173558	1.53391	-0.318735	-0.0180734	0.970007	0.197493	0.0359207	-0.019389	-0.374494	0.0501608	0.122557	1.57782	-0.229243	0.34041	1.55893	1.6665	1.57576	-0.119336	0.458056	1.51999	1.77575
2.19	-0.771132	-0.0779315	-0.0153007	-0.391519	0.937503	-0.575851	1.51774	-0.187648	-0.121601	0.990257	0.18979	-0.0456379	-0.0173556	1.56872	-0.316098	-0.00826287	0.995804	0.203574	0.0334991	-0.0193923	-0.378002	0.0518859	0.125076	1.60717	-0.229754	0.338387	1.55874	1.66422	1.60384	-0.114433	0.453632	1.52049	1.7776
2.2	-0.783755	-0.0788179	-0.0140832	-0.395119	0.928705	-0.57601	1.55006	-0.191695	-0.117233	1.01762	0.197273	-0.0484222	-0.0173555	1.60215	-0.313269	0.00141499	1.02171	0.209856	0.0310869	-0.0193957	-0.382191	0.0533021	0.127737	1.63574	-0.230586	0.33673	1.55926	1.66386	1.63099	-0.109729	0.449741	1.52161	1.77805
2.21	-0.795176	-0.0796592	-0.013111	-0.398511	0.919937	-0.576149	1.58108	-0.19548	-0.112749	1.045	0.204833	-0.0508175	-0.0173553	1.6342	-0.310509	0.0110415	1.04775	0.216357	0.0287716	-0.019399	-0.38715	0.054498	0.130696	1.66355	-0.23166	0.335387	1.56044	1.66558	1.65714	-0.105284	0.446224	1.52333	1.77767
2.22	-0.80537	-0.080578	-0.0125411	-0.40169	0.911228	-0.576253	1.61065	-0.198768	-0.108301	1.07223	0.212373	-0.0529335	-0.0173551	1.66487	-0.30806	0.0206854	1.07387	0.223074	0.026645	-0.0194023	-0.392943	0.0555482	0.134081	1.69059	-0.232882	0.334267	1.56225	1.66931	1.68228	-0.101161	0.442928	1.5256	1.777
2.23	-0.814322	-0.0816624	-0.0124975	-0.404656	0.90261	-0.576303	1.63865	-0.201375	-0.104029	1.09912	0.219804	-0.0548708	-0.0173549	1.69417	-0.306116	0.0303834	1.09997	0.229982	0.0247957	-0.0194056	-0.399605	0.0564931	0.137967	1.71685	-0.234139	0.333252	1.56461	1.67481	1.70639	-0.0974277	0.439742	1.52839	1.77646
2.24	-0.822036	-0.0829608	-0.0130489	-0.407405	0.894121	-0.576287	1.66497	-0.203193	-0.100053	1.12547	0.227056	-0.0566945	-0.0173547	1.72204	-0.304808	0.0401348	1.12591	0.237037	0.0233066	-0.0194088	-0.407158	0.0573403	0.142361	1.74226	-0.235309	0.33221	1.56745	1.68166	1.72949	-0.0941522	0.43661	1.53162	1.77632
2.25	-0.828526	-0.0844869	-0.0142041	-0.409935	0.885803	-0.576197	1.6895	-0.204212	-0.0964833	1.1511	0.234086	-0.0584112	-0.0173545	1.74844	-0.304199	0.049901	1.1515	0.244188	0.0222548	-0.0194121	-0.415614	0.0580767	0.147192	1.76676	-0.236268	0.331018	1.57067	1.68935	1.75164	-0.0913984	0.43354	1.5352	1.77674
2.26	-0.833804	-0.0862229	-0.0159119	-0.412245	0.877699	-0.576033	1.71217	-0.204529	-0.0934205	1.17586	0.240881	-0.0599526	-0.0173544	1.77326	-0.304286	0.0596033	1.17656	0.251387	0.0217123	-0.0194153	-0.424962	0.0586797	0.152319	1.79028	-0.2369	0.329581	1.57413	1.69733	1.77289	-0.0892226	0.430585	1.53901	1.77779
2.27	-0.837882	-0.0881239	-0.0180637	-0.414334	0.869847	-0.575807	1.73292	-0.204345	-0.0909532	1.19965	0.247458	-0.0611686	-0.0173542	1.79641	-0.305008	0.0691251	1.20092	0.258588	0.0217488	-0.0194185	-0.435162	0.0591282	0.157536	1.8127	-0.237112	0.327845	1.57769	1.70519	1.79328	-0.0876696	0.427826	1.54291	1.77948
2.28	-0.840769	-0.0901261	-0.0204988	-0.4162	0.862278	-0.575535	1.75171	-0.203951	-0.0891534	1.22243	0.253866	-0.0618337	-0.017354	1.81779	-0.306255	0.0783178	1.22443	0.265751	0.0224346	-0.0194218	-0.446129	0.0594145	0.162592	1.83393	-0.236845	0.325811	1.58119	1.71266	1.8128	-0.086763	0.425347	1.54676	1.78178
2.29	-0.842477	-0.0921549	-0.023017	-0.417844	0.855018	-0.57524	1.76857	-0.203703	-0.0880706	1.24421	0.260175	-0.0616685	-0.0173538	1.83731	-0.307893	0.0870111	1.24701	0.272834	0.0238427	-0.019425	-0.457739	0.0595504	0.167215	1.85381	-0.236083	0.323536	1.58447	1.71946	1.8314	-0.0864899	0.423221	1.55043	1.78452
2.3	-0.843041	-0.0941293	-0.0254039	-0.419268	0.848082	-0.574949	1.78352	-0.203969	-0.0877211	1.26503	0.266465	-0.0603818	-0.0173536	1.85493	-0.309781	0.0950233	1.26859	0.279787	0.0260461	-0.0194281	-0.469828	0.0595601	0.171153	1.87219	-0.234867	0.321114	1.58743	1.72523	1.84897	-0.0867871	0.421498	1.55379	1.78746
2.31	-0.842526	-0.0959706	-0.027462	-0.420479	0.841489	-0.574679	1.79665	-0.205072	-0.0880761	1.28495	0.27281	-0.0577229	-0.0173534	1.87062	-0.311811	0.10217	1.28914	0.286557	0.0291119	-0.0194313	-0.482193	0.0594555	0.174208	1.88891	-0.233292	0.318668	1.59	1.72957	1.86537	-0.0875409	0.420207	1.55671	1.79023
2.32	-0.841017	-0.0975952	-0.0290443	-0.421484	0.835249	-0.574446	1.80808	-0.207237	-0.0890583	1.304	0.279259	-0.0535321	-0.0173532	1.88442	-0.313919	0.108278	1.30863	0.293091	0.0330903	-0.0194345	-0.494588	0.0592305	0.176266	1.90382	-0.231507	0.316331	1.59216	1.73226	1.88046	-0.0886009	0.419363	1.55909	1.79252
2.33	-0.838639	-0.0989197	-0.0300678	-0.422292	0.829368	-0.574254	1.81796	-0.210565	-0.0905478	1.32222	0.285827	-0.047773	-0.017353	1.89639	-0.316097	0.113198	1.32704	0.299348	0.0379965	-0.0194376	-0.506739	0.0588639	0.177309	1.91683	-0.229697	0.314254	1.59389	1.73321	1.89408	-0.0898052	0.418973	1.56084	1.79411
2.34	-0.835553	-0.0998719	-0.030513	-0.422919	0.823855	-0.574104	1.82647	-0.21503	-0.0923953	1.33956	0.292483	-0.0405423	-0.0173527	1.90666	-0.318367	0.116827	1.34433	0.305306	0.0437897	-0.0194407	-0.518371	0.058331	0.177403	1.9279	-0.228058	0.312607	1.59519	1.73243	1.90612	-0.0910046	0.41904	1.56191	1.79487
2.35	-0.83194	-0.100405	-0.0304168	-0.423383	0.818722	-0.573994	1.83376	-0.220491	-0.094442	1.35597	0.299156	-0.0320621	-0.0173525	1.91535	-0.320764	0.119127	1.36044	0.310955	0.050358	-0.0194438	-0.529235	0.0576187	0.176687	1.93709	-0.226768	0.311565	1.59609	1.73008	1.91649	-0.0920816	0.419554	1.56229	1.79483
2.36	-0.82798	-0.100514	-0.0298667	-0.423706	0.813987	-0.573917	1.84	-0.226708	-0.0965451	1.37134	0.305729	-0.0226564	-0.0173523	1.92259	-0.323319	0.120148	1.37528	0.316296	0.0575198	-0.0194469	-0.539132	0.0567363	0.175353	1.94451	-0.225966	0.311296	1.59655	1.72645	1.92518	-0.0929632	0.420495	1.56199	1.7941
2.37	-0.823832	-0.100239	-0.0289931	-0.423907	0.809673	-0.573867	1.84525	-0.233364	-0.0985991	1.38552	0.31205	-0.0127184	-0.0173521	1.9285	-0.326049	0.120035	1.38877	0.321317	0.065041	-0.01945	-0.54795	0.0557158	0.173626	1.95037	-0.225732	0.311925	1.59657	1.72198	1.93224	-0.093625	0.421832	1.56109	1.79293
